<?xml version="1.0" encoding="UTF-8"?>
<svg width="483px" height="64px" viewBox="0 0 483 64" version="1.1" xmlns="http://www.w3.org/2000/svg" xmlns:xlink="http://www.w3.org/1999/xlink">
    <!-- Generator: Sketch 51.3 (57544) - http://www.bohemiancoding.com/sketch -->
    <title>Logo</title>
    <desc>Created with Sketch.</desc>
    <defs></defs>
    <g id="Page-1" stroke="none" stroke-width="1" fill="none" fill-rule="evenodd">
        <g id="Group" fill="#F05137">
            <path d="M19.229139,-7.76880231e-16 L462.792345,7.76880231e-16 C469.478736,-4.51389787e-16 471.903383,0.696192084 474.347827,2.00349528 C476.792272,3.31079847 478.710686,5.22921278 480.017989,7.67365722 C481.325292,10.1181017 482.021484,12.5427485 482.021484,19.229139 L482.021484,44.770861 C482.021484,51.4572515 481.325292,53.8818983 480.017989,56.3263428 C478.710686,58.7707872 476.792272,60.6892015 474.347827,61.9965047 C471.903383,63.3038079 469.478736,64 462.792345,64 L19.229139,64 C12.5427485,64 10.1181017,63.3038079 7.67365722,61.9965047 C5.22921278,60.6892015 3.31079847,58.7707872 2.00349528,56.3263428 C0.696192084,53.8818983 3.00926524e-16,51.4572515 -5.17920154e-16,44.770861 L5.17920154e-16,19.229139 C-3.00926524e-16,12.5427485 0.696192084,10.1181017 2.00349528,7.67365722 C3.31079847,5.22921278 5.22921278,3.31079847 7.67365722,2.00349528 C10.1181017,0.696192084 12.5427485,4.51389787e-16 19.229139,-7.76880231e-16 Z M20.002,44 L25.018,44 L25.018,25.532 L25.17,25.532 L33.53,39.554 L33.91,39.554 L42.27,25.646 L42.422,25.646 L42.422,44 L47.438,44 L47.438,17.4 L41.738,17.4 L33.834,30.738 L33.682,30.738 L25.778,17.4 L20.002,17.4 L20.002,44 Z M55.874,21.77 C57.888,21.77 59.028,20.592 59.028,18.654 C59.028,16.792 57.888,15.614 55.874,15.614 C53.784,15.614 52.72,16.792 52.72,18.654 C52.72,20.592 53.784,21.77 55.874,21.77 Z M53.29,44 L58.382,44 L58.382,24.24 L53.29,24.24 L53.29,44 Z M71.226,44.342 C76.812,44.342 79.7,40.998 80.004,36.552 L74.874,36.552 C74.646,38.528 73.316,39.858 71.112,39.858 C68.224,39.858 66.78,37.844 66.78,34.12 C66.78,30.434 68.224,28.382 71.112,28.382 C73.278,28.382 74.646,29.75 74.836,31.764 L79.966,31.764 C79.7,27.356 76.812,23.898 71.112,23.898 C64.918,23.898 61.574,28.116 61.574,34.12 C61.574,40.2 65.032,44.342 71.226,44.342 Z M83.538,44 L88.364,44 L88.364,34.31 C88.364,30.738 90.112,28.648 93.152,28.648 L94.938,28.648 L94.938,23.936 L93.494,23.936 C90.986,23.936 89.238,25.38 88.364,27.242 L88.212,27.242 L87.832,24.24 L83.538,24.24 L83.538,44 Z M106.604,44.342 C112.95,44.342 116.18,39.972 116.18,34.158 C116.18,28.306 112.874,23.898 106.604,23.898 C100.296,23.898 96.99,28.306 96.99,34.158 C96.99,40.01 100.22,44.342 106.604,44.342 Z M106.604,39.858 C103.754,39.858 102.196,37.92 102.196,34.158 C102.196,30.396 103.716,28.382 106.604,28.382 C109.454,28.382 111.012,30.358 111.012,34.158 C111.012,37.92 109.454,39.858 106.604,39.858 Z M120.398,44 L125.604,44 L125.604,34.88 L131.798,34.88 C137.156,34.88 140.576,31.156 140.576,26.064 C140.576,21.124 137.232,17.4 131.798,17.4 L120.398,17.4 L120.398,44 Z M125.604,30.206 L125.604,22.036 L130.848,22.036 C133.622,22.036 135.256,23.48 135.256,26.064 C135.256,28.838 133.736,30.206 130.848,30.206 L125.604,30.206 Z M144.376,44 L149.468,44 L149.468,15.88 L144.376,15.88 L144.376,44 Z M159.576,44.342 C162.122,44.342 163.984,43.392 165.086,41.948 L165.238,41.948 L165.618,44 L170.14,44 L170.14,30.928 C170.14,26.9 167.062,23.898 161.742,23.898 C156.346,23.898 153.534,26.9 153.534,30.624 L158.322,30.624 C158.322,29.218 159.5,28.078 161.628,28.078 C164.06,28.078 165.048,29.37 165.048,30.966 L165.048,32.676 C164.136,32.372 162.312,32.068 160.64,32.068 C155.13,32.068 152.66,34.614 152.66,38.186 C152.66,41.682 155.168,44.342 159.576,44.342 Z M160.792,40.314 C158.74,40.314 157.714,39.326 157.714,37.958 C157.714,36.552 158.892,35.602 161.134,35.602 C162.464,35.602 163.756,35.754 165.048,36.248 L165.048,36.666 C165.048,38.642 163.452,40.314 160.792,40.314 Z M176.486,52.702 L181.958,52.702 L192.18,24.62 L192.18,24.24 L186.708,24.24 L181.996,38.68 L181.844,38.68 L177.284,24.24 L172.04,24.24 L172.04,24.62 L178.766,43.924 L179.488,43.962 L176.486,52.322 L176.486,52.702 Z M202.744,53.044 C208.292,53.044 212.168,49.814 212.168,44.988 L212.168,24.24 L207.608,24.24 L207.076,26.368 L206.924,26.368 C205.936,25.076 204.302,23.898 201.49,23.898 C196.436,23.898 193.358,28.078 193.358,34.158 C193.358,40.01 196.322,44.342 201.49,44.342 C204.302,44.342 205.936,43.164 206.924,41.872 L207.076,41.872 L207.076,44.912 C207.076,47.04 205.67,48.674 202.744,48.674 C200.426,48.674 199.058,47.42 198.906,45.938 L193.928,45.938 C194.042,50.194 197.5,53.044 202.744,53.044 Z M202.896,39.858 C199.628,39.858 198.526,37.236 198.526,34.158 C198.526,31.042 199.704,28.382 202.896,28.382 C206.088,28.382 207.266,31.042 207.266,34.158 C207.266,37.236 206.126,39.858 202.896,39.858 Z M216.424,44 L221.25,44 L221.25,34.31 C221.25,30.738 222.998,28.648 226.038,28.648 L227.824,28.648 L227.824,23.936 L226.38,23.936 C223.872,23.936 222.124,25.38 221.25,27.242 L221.098,27.242 L220.718,24.24 L216.424,24.24 L216.424,44 Z M239.49,44.342 C245.836,44.342 249.066,39.972 249.066,34.158 C249.066,28.306 245.76,23.898 239.49,23.898 C233.182,23.898 229.876,28.306 229.876,34.158 C229.876,40.01 233.106,44.342 239.49,44.342 Z M239.49,39.858 C236.64,39.858 235.082,37.92 235.082,34.158 C235.082,30.396 236.602,28.382 239.49,28.382 C242.34,28.382 243.898,30.358 243.898,34.158 C243.898,37.92 242.34,39.858 239.49,39.858 Z M264.95,24.24 L264.95,35.526 C264.95,38.034 263.886,39.592 261.302,39.592 C258.68,39.592 257.616,38.034 257.616,35.526 L257.616,24.24 L252.524,24.24 L252.524,36.324 C252.524,40.58 255.26,44.342 261.302,44.342 C267.268,44.342 270.042,40.58 270.042,36.324 L270.042,24.24 L264.95,24.24 Z M274.602,44 L279.694,44 L279.694,33.056 C279.694,30.244 281.328,28.534 283.76,28.534 C286.306,28.534 287.408,30.016 287.408,32.486 L287.408,44 L292.5,44 L292.5,31.042 C292.5,26.634 289.688,23.898 285.318,23.898 C282.62,23.898 280.796,25 279.694,26.482 L279.542,26.482 L279.162,24.24 L274.602,24.24 L274.602,44 Z M303.824,44.342 C306.636,44.342 308.27,43.164 309.258,41.872 L309.41,41.872 L309.942,44 L314.502,44 L314.502,15.88 L309.41,15.88 L309.41,26.368 L309.258,26.368 C308.27,25.076 306.636,23.898 303.824,23.898 C298.656,23.898 295.692,28.23 295.692,34.12 C295.692,40.162 298.77,44.342 303.824,44.342 Z M305.23,39.858 C302.038,39.858 300.86,37.198 300.86,34.12 C300.86,31.004 301.962,28.382 305.23,28.382 C308.46,28.382 309.6,31.042 309.6,34.12 C309.6,37.198 308.422,39.858 305.23,39.858 Z M319.442,44 L324.648,44 L324.648,34.88 L330.842,34.88 C336.2,34.88 339.62,31.156 339.62,26.064 C339.62,21.124 336.276,17.4 330.842,17.4 L319.442,17.4 L319.442,44 Z M324.648,30.206 L324.648,22.036 L329.892,22.036 C332.666,22.036 334.3,23.48 334.3,26.064 C334.3,28.838 332.78,30.206 329.892,30.206 L324.648,30.206 Z M343.42,44 L348.246,44 L348.246,34.31 C348.246,30.738 349.994,28.648 353.034,28.648 L354.82,28.648 L354.82,23.936 L353.376,23.936 C350.868,23.936 349.12,25.38 348.246,27.242 L348.094,27.242 L347.714,24.24 L343.42,24.24 L343.42,44 Z M366.486,44.342 C372.832,44.342 376.062,39.972 376.062,34.158 C376.062,28.306 372.756,23.898 366.486,23.898 C360.178,23.898 356.872,28.306 356.872,34.158 C356.872,40.01 360.102,44.342 366.486,44.342 Z M366.486,39.858 C363.636,39.858 362.078,37.92 362.078,34.158 C362.078,30.396 363.598,28.382 366.486,28.382 C369.336,28.382 370.894,30.358 370.894,34.158 C370.894,37.92 369.336,39.858 366.486,39.858 Z M383.738,44 L390.008,44 L396.62,24.62 L396.62,24.24 L391.452,24.24 L387.006,38.984 L386.854,38.984 L382.294,24.24 L377.05,24.24 L377.05,24.62 L383.738,44 Z M402.016,21.77 C404.03,21.77 405.17,20.592 405.17,18.654 C405.17,16.792 404.03,15.614 402.016,15.614 C399.926,15.614 398.862,16.792 398.862,18.654 C398.862,20.592 399.926,21.77 402.016,21.77 Z M399.432,44 L404.524,44 L404.524,24.24 L399.432,24.24 L399.432,44 Z M415.848,44.342 C418.66,44.342 420.294,43.164 421.282,41.872 L421.434,41.872 L421.966,44 L426.526,44 L426.526,15.88 L421.434,15.88 L421.434,26.368 L421.282,26.368 C420.294,25.076 418.66,23.898 415.848,23.898 C410.68,23.898 407.716,28.23 407.716,34.12 C407.716,40.162 410.794,44.342 415.848,44.342 Z M417.254,39.858 C414.062,39.858 412.884,37.198 412.884,34.12 C412.884,31.004 413.986,28.382 417.254,28.382 C420.484,28.382 421.624,31.042 421.624,34.12 C421.624,37.198 420.446,39.858 417.254,39.858 Z M439.218,44.342 C444.31,44.342 447.54,41.416 448.072,37.844 L443.094,37.844 C442.714,39.06 441.498,40.124 439.218,40.124 C436.292,40.124 434.924,38.224 434.886,35.526 L448.338,35.526 L448.338,33.55 C448.338,28.154 445.032,23.898 439.142,23.898 C432.796,23.898 429.68,28.534 429.68,34.158 C429.68,39.858 433.1,44.342 439.218,44.342 Z M434.924,32.144 C435.038,29.902 436.292,28.154 439.142,28.154 C441.802,28.154 443.056,29.902 443.132,32.144 L434.924,32.144 Z M451.872,44 L456.698,44 L456.698,34.31 C456.698,30.738 458.446,28.648 461.486,28.648 L463.272,28.648 L463.272,23.936 L461.828,23.936 C459.32,23.936 457.572,25.38 456.698,27.242 L456.546,27.242 L456.166,24.24 L451.872,24.24 L451.872,44 Z" id="Logo"></path>
        </g>
    </g>
</svg>